<?xml version="1.0" encoding="utf-8"?>
<!-- Generator: Adobe Illustrator 27.2.0, SVG Export Plug-In . SVG Version: 6.00 Build 0)  -->
<svg version="1.1" xmlns="http://www.w3.org/2000/svg" xmlns:xlink="http://www.w3.org/1999/xlink" x="0px" y="0px"
	 viewBox="0 0 1600 900" style="enable-background:new 0 0 1600 900;" xml:space="preserve">
<style type="text/css">
	.st0{fill:url(#SVGID_1_);}
	.st1{opacity:0.1;fill:#FFFFFF;}
	.st2{fill:#16434F;}
	.st3{fill:#072D3A;}
	.st4{fill:#0F333D;}
	.st5{fill:url(#SVGID_00000104681557904994302290000015194734573515521180_);}
	.st6{fill:#686868;}
</style>
<g id="Layer_1">
	<linearGradient id="SVGID_1_" gradientUnits="userSpaceOnUse" x1="800" y1="-9.094947e-13" x2="800" y2="900">
		<stop  offset="3.424658e-03" style="stop-color:#B57830"/>
		<stop  offset="3.626809e-02" style="stop-color:#B27936"/>
		<stop  offset="0.3003" style="stop-color:#957D62"/>
		<stop  offset="0.538" style="stop-color:#737F80"/>
		<stop  offset="0.7412" style="stop-color:#508097"/>
		<stop  offset="0.9019" style="stop-color:#2881A5"/>
		<stop  offset="1" style="stop-color:#0283AC"/>
	</linearGradient>
	<rect class="st0" width="1600" height="900"/>
	<path class="st1" d="M1592.6,398.6c0,0-271.2,3.8-288.7,0s-187.2-20.9-209.8-31.4c-22.6-10.5-58.9-3.8-7.4-11.3
		c51.5-7.5,96.7-13.3,111.7-14.8c15.1-1.5-13.8,6,40.2-9s90.4-6.3,32.6-24.5c-57.7-18.2-81.6-29.5-49-42.1
		c32.6-12.6,35.2-17.6,52.7-17.6s-30.1-5,40.2,0c70.3,5,35.2,8.8,86.6,7.5s21.3,2.5,64,0c42.7-2.5,16.3-8.2,66.5-9.8
		c50.2-1.5,10-14.8,92.9,0s89.1,12.3,90.4,21.1c1.3,8.8,21.3,35.2-45.2,65.3C1603.9,362.2,1592.6,398.6,1592.6,398.6z"/>
	<path class="st1" d="M800.1,132.4c0,0,79.1-38.9,123-38.9c43.9,0,213.4,10,313.8,19.5s62.8,32,0,33.3
		c-62.8,1.3-212.2,51.5-173.2,47.7c38.9-3.8-17.6,17.6-69,21.3c-51.5,3.8-161.9,1.3-220.9,6.3s-89.1,6.3-128,0
		c-38.9-6.3-62.8-27.6-62.8-27.6s-67.8-32.2-31.4-34.3c36.4-2.1,43.9-5.9,72.8-8.4s87.9-11.3,92.9-11.3
		C722.3,139.9,800.1,132.4,800.1,132.4z"/>
	<path class="st1" d="M66.1,291.8c0,0,121.8,2.5,134.3,0c12.6-2.5,92.9-7.5,97.9-7.5s10-10-5,0S174,313.2,174,313.2
		s113-2.5,91.6,11.3c-21.3,13.8-52.7,15.1-97.9,22.6c-45.2,7.5-22.6,6.8-69,10.9s30.1-4.2-108,0s-16.3-54.9-16.3-54.9L66.1,291.8z"
		/>
	<path class="st2" d="M472.1,932.7c3.2-23.8,11.7-87.9,58.6-138.7c34.6-37.6,64.3-39.9,93.3-88.5c30.6-51.4,39.5-69.4,39.5-69.4
		c9.5-19.2,12.8-28.3,23.9-38.3c12.3-11,25.9-15.4,52.6-23.9c25.7-8.2,29.9-7.1,44.2-12c32.6-11.1,32.3-24,62.2-39.5
		c47.4-24.6,92-15,117.2-39.5c8.8-8.5,15.5-16.7,15.5-16.7c11.4-13.8,12.9-19.5,20.3-27.5c7.6-8.2,15.1-11.9,29.9-19.1
		c28.2-13.7,42.3-20.6,55-16.7c13.2,4,13.5,15.1,33.5,47.8c10.1,16.6,24.8,34.7,54.2,71c18.3,22.6,24.6,29,34.3,35.4
		c16.4,10.7,23,8.6,33.5,19.1c9.6,9.7,10.3,17.8,20.3,44.2c9.2,24.2,13.8,36.4,17.9,41.9c17.2,22.9,38.7,18.4,88.5,44.2
		c16.6,8.6,28.3,16.5,35.9,21.5c29.1,19.6,69.5,47.4,93.3,95.7c7.3,14.7,11.3,27.9,13.2,34.7c8,29.1,7.3,52.3,7.2,59.8
		c-1.3,80.5,35.6,151.1,13.2,197.3c-29,59.7-146.6,57.2-217.7,57.4c-483.4,1.2-600.8,130.8-733.1,16.7
		C513.6,1133.8,459,1031.1,472.1,932.7z"/>
	<path class="st3" d="M-29,666.1C3.5,591.7,45.7,541,91.8,485.5c71.2-85.7,95.7-86.7,106.4-82.5c15.1,5.8,9.1,24,27.5,52.6
		c26.3,40.8,57.3,33,119.6,82.5c16.8,13.3,35.7,28.4,55,53.8c30.6,40.3,26.1,59.2,58.6,94.5c8.9,9.6,7.2,6.1,50.2,44.2
		c37.4,33.2,40.2,37.2,51.4,46.6c69,57.7,116.9,33.3,162.6,87.3c6.6,7.8,0.1,1.8,33.5,57.4c48.1,80.1,59.8,89.4,67,94.5
		c29.8,20.9,41.6,9.2,75.3,35.9c4,3.1,25.2,20.3,39.5,50.2c6.3,13.3,12.1,25.7,7.2,35.9c-7.9,16.4-38.7,16.6-46.6,16.7
		c-168.8,3.7-773.3,236.7-950.8-13.2C-166.5,980.4-43.6,699.5-29,666.1z"/>
	<path class="st4" d="M1615.4,435.2c-14.4-1.2-43.3,16.1-74.1,34.7c-30.4,18.3-37.8,27.7-64.6,43.1c-38.2,21.9-55.7,21.3-78.9,32.3
		c-69.5,32.9-52.7,104.3-114.8,161.4c-52.8,48.6-80,10.7-179.4,59.8c-108.1,53.4-99,109.5-189,130.4c-29,6.7-38.8,2.9-139.9,19.1
		c-39.3,6.3-63,10.9-89.7,26.3c-18.8,10.8-24.3,18.5-64.6,59.8c-72.5,74.4-90.2,86.2-87.3,106.8c0.7,5.1,4.6,23.9,50.2,47.5
		c79.7,41.1,161.3,31.9,168.6,31.1c256.7-28.2,688.9,182.8,892.2-13.2C1857.1,969,1689.3,441.2,1615.4,435.2z"/>
	
		<linearGradient id="SVGID_00000103248185467387689450000010238609709256761018_" gradientUnits="userSpaceOnUse" x1="516.553" y1="279.8196" x2="516.553" y2="465.6157">
		<stop  offset="0" style="stop-color:#EF9D41"/>
		<stop  offset="0.9268" style="stop-color:#EF9D41;stop-opacity:7.319725e-02"/>
		<stop  offset="1" style="stop-color:#EF9D41;stop-opacity:0"/>
	</linearGradient>
	<circle style="fill:url(#SVGID_00000103248185467387689450000010238609709256761018_);" cx="516.6" cy="372.7" r="92.9"/>
	<path class="st6" d="M343.5,251.6c8.3-1.2,16.5-2.5,24.8-3.7c4.2-0.6,8.6-0.3,12.7,0.9c6.4,1.9,12.8,3.8,19.2,5.8l4.3-20.3
		c0.6-3,2.1-5.8,4.1-8.1l16.9-18.5l-15.1,20.7c-1.9,2.6-3.2,5.6-3.7,8.8l-3.7,22.2c-8-2.8-16-5.6-24-8.4c-2.5-0.9-5.2-1.3-7.9-1.1
		C361.8,250.6,352.7,251.1,343.5,251.6z"/>
	<path class="st6" d="M315,306.1c5.7-0.9,11.5-1.7,17.2-2.6c3-0.4,6-0.2,8.8,0.6c4.4,1.3,8.9,2.7,13.3,4l3-14.1
		c0.4-2.1,1.4-4,2.9-5.6l11.8-12.9L361.5,290c-1.3,1.8-2.2,3.9-2.6,6.1l-2.6,15.5c-5.6-1.9-11.1-3.9-16.7-5.8
		c-1.8-0.6-3.6-0.9-5.5-0.8C327.7,305.4,321.4,305.8,315,306.1z"/>
	<path class="st6" d="M281.3,248.4c4.4-0.7,8.9-1.3,13.3-2c2.3-0.3,4.6-0.2,6.8,0.5c3.4,1,6.9,2.1,10.3,3.1l2.3-10.9
		c0.3-1.6,1.1-3.1,2.2-4.3l9.1-9.9l-8.1,11.1c-1,1.4-1.7,3-2,4.7l-2,11.9c-4.3-1.5-8.6-3-12.9-4.5c-1.4-0.5-2.8-0.7-4.2-0.6
		C291.2,247.8,286.3,248.1,281.3,248.4z"/>
</g>
<g id="Layer_2">
	<g>
	</g>
	<g>
	</g>
	<g>
	</g>
	<g>
	</g>
	<g>
	</g>
	<g>
	</g>
</g>
</svg>
